<?xml version="1.0" encoding="UTF-8" standalone="no"?>
<svg
   xmlns:dc="http://purl.org/dc/elements/1.1/"
   xmlns:cc="http://creativecommons.org/ns#"
   xmlns:rdf="http://www.w3.org/1999/02/22-rdf-syntax-ns#"
   xmlns:svg="http://www.w3.org/2000/svg"
   xmlns="http://www.w3.org/2000/svg"
   xmlns:sodipodi="http://sodipodi.sourceforge.net/DTD/sodipodi-0.dtd"
   xmlns:inkscape="http://www.inkscape.org/namespaces/inkscape"
   version="1.1"
   id="Capa_1"
   x="0px"
   y="0px"
   viewBox="0 0 641 439"
   xml:space="preserve"
   sodipodi:docname="tab logo.svg"
   inkscape:label="&lt; &gt;"
   width="641"
   height="439"
   inkscape:version="1.0.1 (c497b03c, 2020-09-10)"
   inkscape:export-filename="/Users/rlew/Documents/fullstack/rlew631.github.io/icon.png"
   inkscape:export-xdpi="96"
   inkscape:export-ydpi="96"><metadata
   id="metadata57"><rdf:RDF><cc:Work
       rdf:about=""><dc:format>image/svg+xml</dc:format><dc:type
         rdf:resource="http://purl.org/dc/dcmitype/StillImage" /><dc:title></dc:title></cc:Work></rdf:RDF></metadata><defs
   id="defs55" /><sodipodi:namedview
   pagecolor="#ffffff"
   bordercolor="#666666"
   borderopacity="1"
   objecttolerance="10"
   gridtolerance="10"
   guidetolerance="10"
   inkscape:pageopacity="0"
   inkscape:pageshadow="2"
   inkscape:window-width="1440"
   inkscape:window-height="900"
   id="namedview53"
   showgrid="false"
   fit-margin-top="0"
   fit-margin-left="0"
   fit-margin-right="0"
   fit-margin-bottom="0"
   inkscape:zoom="0.707"
   inkscape:cx="148"
   inkscape:cy="-16.6"
   inkscape:window-x="1080"
   inkscape:window-y="1020"
   inkscape:window-maximized="0"
   inkscape:current-layer="Capa_1"
   inkscape:document-rotation="0" />
<path
   d="M 577,210 532,93.5 V 92.6 L 493,41.2 c -2,-4.8 -4,-4.3 -16,4 -12,-13.3 -21,-29.8 -31,-43.55 -3,-3.1 -6,-1.8 -9,0.4 L 421,13.3 c -4,2.9 -1,6.5 0,10.3 l 23,46.5 -25,16.3 -8,5.2 -34,-38.2 c -3,-3.2 -8,-3.2 -11,-0.9 l -12,9.4 c -4,2.4 -1,5.6 1,10.3 l 16,30.8 -44,30 -3,-6 1,-3 c 5,-4 5,-11 2,-14 -2,-4 -7,-4 -10,-1 l -30,23 c -2,1 -4,6 -2,9 2,2 5,6 7,6 3,-2 5,-2 6,-3 l 6,-4 4,8 -40,28 c -9,7 -10,19 -4,25 -90,66 -159,116 -239.8,175 -3.2,4 -5.8,7 -6.6,11 -1.3,3 -0.5,8 2.1,12 l 25.1,34 c 3,4 6.4,5 10.4,6 4,1 8.6,-1 12.4,-3 L 306,261 c 9,7 13,15 22,7 l 100,-74 84,64 c 1,2 6,3 8,2 l 17,-13 c 2,-3 5,-7 3,-12 l -69,-92 9,-5 67,92 c 1,1 4,2 7,4 1,1 3,0 5,-1 l 14,-13 c 4,-4 5,-8 4,-10 z M 59,424 c -1.6,0 0.1,1 -1.2,-1 l -24.6,-34 -0.6,-1 0.5,-1 26.3,-18 5.4,7 c 5.8,7 15.3,-1 10.2,-8 l -4.7,-7 10.3,-8 5.3,7 c 6.8,9 16.1,0 10.2,-8 l -4.6,-6 10.5,-8 5,6 c 7,8 15,-1 10,-9 l -4,-5 10,-7 5,7 c 7,8 15,-2 10,-8 l -5,-7 11,-8 5,6 c 7,7 16,-1 11,-7 l -5,-7 10,-7 5,6 c 7,7 17,-1 12,-8 l -5,-6 10,-8 5,7 c 7,7 15,-3 11,-8 l -6,-7 10,-8 5,7 c 6,8 16,0 11,-8 l -5,-7 12,-9 5,7 c 6,9 14,1 10,-6 l -5,-8 10,-7 6,7 c 6,7 15,-2 10,-8 l -5,-7 11,-8 v 0 l 25,33 2,2 z M 516,243 435,179 c -3,-3 -6,-4 -7,-2 l -102,76 c -2,0 -3,2 -4,1 -18,-20 -28,-40 -41,-57 v 0 l -5,-6 v 0 0 l 110,-80 c 3,-3 4,-8 2,-12.2 l -18,-28.7 -2,-0.7 35,37.6 c 3,4 8,5 12,2 l 7,-6 99,139 z m 39,-28 -69,-92 c 0,-4 -6,-5 -11,-3 l -12,10 -27,-36.2 23,-15.9 c 2,-2.3 3,-4.2 4,-5.7 -1,-2.1 -1,-4.4 -2,-6.9 L 438,19 l 2,-0.4 29,42.6 c 3,2.3 6,2.7 9,-0.2 l 8,-4.5 34,45.5 40,111 z"
   id="path20"
   style="display:inline;stroke-width:1.04896"
   sodipodi:nodetypes="ccssccscccccsssscccsssssssccsccssssscccssssccssssccccccccccccccccccccccccccccccccccccccccccccccccccccssccccccccsccssccccssccsssccsscccc"
   inkscape:label="Calipers" />















<text
   xml:space="preserve"
   style="font-style:normal;font-weight:normal;font-size:40px;line-height:1.25;font-family:sans-serif;display:inline;fill:#000000;fill-opacity:1;stroke:none"
   x="120"
   y="387"
   id="text65"
   transform="rotate(-37.9)"
   inkscape:label="RL"><tspan
     sodipodi:role="line"
     id="tspan63"
     x="120"
     y="387"
     style="font-style:normal;font-variant:normal;font-weight:bold;font-stretch:normal;font-size:53.333px;font-family:sans-serif;-inkscape-font-specification:'sans-serif Bold'">RL</tspan></text><text
   xml:space="preserve"
   style="font-style:normal;font-weight:normal;font-size:100px;line-height:1.25;font-family:sans-serif;fill:#000000;fill-opacity:1;stroke:none"
   x="362"
   y="408"
   id="text61-3"
   inkscape:label="&lt;/&gt;"><tspan
     sodipodi:role="line"
     id="tspan59-4"
     x="362"
     y="408"
     style="font-style:normal;font-variant:normal;font-weight:bold;font-stretch:normal;font-size:100px;font-family:sans-serif;-inkscape-font-specification:'sans-serif Bold'"><tspan
       style="font-size:120px"
       id="tspan48">&lt;<tspan
   style="font-style:normal;font-variant:normal;font-weight:bold;font-stretch:normal;font-family:sans-serif;-inkscape-font-specification:'sans-serif Bold'"
   id="tspan60">/</tspan>&gt;</tspan></tspan></text><text
   xml:space="preserve"
   style="font-style:normal;font-weight:normal;font-size:106.667px;line-height:1.25;font-family:sans-serif;display:inline;fill:#000000;fill-opacity:1;stroke:none"
   x="-13.3"
   y="133"
   id="text61"
   inkscape:label="&lt; &gt;"><tspan
     sodipodi:role="line"
     id="tspan59"
     x="-13.3"
     y="133"
     style="font-style:normal;font-variant:normal;font-weight:bold;font-stretch:normal;font-size:120px;font-family:sans-serif;-inkscape-font-specification:'sans-serif Bold'"><tspan
       style="font-size:133.333px"
       id="tspan66">&lt;</tspan><tspan
       style="font-size:80px"
       id="tspan40"> </tspan><tspan
       style="font-size:133.333px"
       id="tspan64">&gt;</tspan></tspan></text></svg>
